<svg id="Layer_1" data-name="Layer 1" xmlns="http://www.w3.org/2000/svg" viewBox="0 0 68.35 60.3"><defs><style>.cls-1,.cls-2{fill:none;stroke:#3c6e71;}.cls-1{stroke-width:2px;}</style></defs><path class="cls-1" d="M6.9,39.55l15.48-28a1.3,1.3,0,0,1,1.16-.69H56.26a1.32,1.32,0,0,1,1.17.69l15.49,28a1.34,1.34,0,0,1,0,1.29L57.64,68.47a1.33,1.33,0,0,1-1.17.69H23.94a1.34,1.34,0,0,1-1.17-.67L6.91,40.86A1.33,1.33,0,0,1,6.9,39.55Z" transform="translate(-5.73 -9.86)"/><path class="cls-1" d="M8.33,39.56,27.62,21.3a1.2,1.2,0,0,1,.47-.29l27.46-9.64a1.33,1.33,0,0,1,1.7.8.66.66,0,0,1,.06.2L62,41.31a1.7,1.7,0,0,1,0,.45l-4.51,26A1.31,1.31,0,0,1,56,68.85l-.12,0L28.14,62.11a1.51,1.51,0,0,1-.66-.38L8.27,41.45A1.34,1.34,0,0,1,8.33,39.56Z" transform="translate(-5.73 -9.86)"/><path class="cls-1" d="M23.44,68.61l4.1-6.31a1.29,1.29,0,0,0,.21-.72V21.11a1.39,1.39,0,0,0-.14-.6l-4.84-9.67" transform="translate(-5.73 -9.86)"/><path class="cls-2" d="M73.27,40.21,62.54,42a1.34,1.34,0,0,1-.92-.18L27.82,21.11" transform="translate(-5.73 -9.86)"/><line class="cls-2" x1="22.02" y1="52.11" x2="56.32" y2="32.26"/></svg>