<svg id="Layer_1" data-name="Layer 1" xmlns="http://www.w3.org/2000/svg" viewBox="0 0 349.45 60.32"><defs><style>.cls-1,.cls-2{fill:none;stroke:#3c6e71;}.cls-1{stroke-width:2px;}.cls-3{font-size:24px;fill:#d9d9d9;font-family:Commissioner-Regular, Commissioner;}.cls-4{letter-spacing:-0.02em;}.cls-5{letter-spacing:-0.01em;}.cls-6{letter-spacing:-0.01em;}.cls-7{letter-spacing:0em;}</style></defs><path class="cls-1" d="M30.13,57.44l15.48-28a1.31,1.31,0,0,1,1.16-.69H79.49a1.32,1.32,0,0,1,1.17.69l15.49,28a1.34,1.34,0,0,1,0,1.29L80.87,86.36a1.33,1.33,0,0,1-1.17.69H47.17A1.35,1.35,0,0,1,46,86.38L30.14,58.75A1.33,1.33,0,0,1,30.13,57.44Z" transform="translate(-28.96 -27.73)"/><path class="cls-1" d="M31.56,57.45,50.85,39.19a1.33,1.33,0,0,1,.47-.29l27.46-9.64a1.33,1.33,0,0,1,1.76,1l4.7,28.94a1.36,1.36,0,0,1,0,.45l-4.51,26a1.32,1.32,0,0,1-1.63,1.07L51.37,80a1.51,1.51,0,0,1-.66-.38L31.5,59.34A1.34,1.34,0,0,1,31.56,57.45Z" transform="translate(-28.96 -27.73)"/><path class="cls-1" d="M46.67,86.5l4.1-6.31a1.29,1.29,0,0,0,.21-.72V39a1.26,1.26,0,0,0-.14-.6L46,28.73" transform="translate(-28.96 -27.73)"/><path class="cls-2" d="M96.5,58.1,85.77,59.93a1.35,1.35,0,0,1-.92-.18L51.05,39" transform="translate(-28.96 -27.73)"/><line class="cls-2" x1="22.02" y1="52.13" x2="56.32" y2="32.28"/><text class="cls-3" transform="translate(79.64 37.28)">Side P<tspan class="cls-4" x="66.42" y="0">r</tspan><tspan x="75.59" y="0">oject </tspan><tspan class="cls-5" x="135.01" y="0">S</tspan><tspan x="148.85" y="0">tar</tspan><tspan class="cls-6" x="180.83" y="0">t</tspan><tspan class="cls-7" x="190.49" y="0">er Pack</tspan></text></svg>